<svg width="142" height="60" viewBox="0 0 142 60" fill="none" xmlns="http://www.w3.org/2000/svg">
<path d="M14.8284 0.00873184C14.8016 0.0130501 14.7513 0.0270844 14.717 0.0400352C14.5177 0.110199 14.3463 0.302334 14.2981 0.507427C14.2841 0.566795 14.282 2.64792 14.282 17.6951V34.8147L14.3045 34.8957C14.3345 35.0058 14.3827 35.0921 14.4577 35.1731C14.6463 35.3771 14.9323 35.4451 15.183 35.3436C15.2163 35.3307 15.6288 35.0878 16.0991 34.8039C17.0141 34.2523 17.582 33.9102 18.3694 33.4363C18.6405 33.2722 19.0862 33.0045 19.3605 32.8394C19.6348 32.6742 20.0784 32.4065 20.3462 32.2457C20.6141 32.0838 21.2794 31.6833 21.8248 31.3552C23.1673 30.5478 23.1287 30.5704 23.2015 30.5132C23.2883 30.4431 23.4169 30.3071 23.4769 30.2218C23.5787 30.075 23.6623 29.871 23.6944 29.6885C23.7083 29.6022 23.7105 28.4127 23.7105 17.9649C23.7105 7.5172 23.7083 6.32767 23.6944 6.24132C23.6601 6.04486 23.5701 5.83438 23.4533 5.67678C23.3033 5.47601 23.554 5.6498 19.2416 2.75262C17.057 1.28677 15.2505 0.0756569 15.2259 0.0627022C15.1198 0.00873184 14.957 -0.0139351 14.8284 0.00873184Z" fill="#02273A"/>
<path d="M8.63563 9.51413C8.59706 9.52277 8.53706 9.54328 8.50171 9.55947C8.46635 9.57674 6.64922 10.7911 4.4646 12.2591C0.751064 14.7526 0.486424 14.9328 0.397496 15.0213C0.189641 15.2297 0.058928 15.4877 0.0160713 15.7791C0.00214284 15.8741 0 17.4749 0 29.6313C0 39.453 0.00321426 43.394 0.0117856 43.4404C0.0374996 43.5861 0.118927 43.7308 0.227141 43.8279C0.331068 43.9197 0.528209 43.9952 0.664279 43.9952C0.727493 43.9952 0.861421 43.965 0.925706 43.9369C0.955705 43.9229 1.27713 43.7329 1.63927 43.5149C2.00141 43.2968 2.5414 42.9708 2.83926 42.7917C3.61497 42.3243 4.39067 41.8569 5.02495 41.4748C5.32816 41.2923 5.67102 41.0851 5.78566 41.016C5.9003 40.9469 6.3803 40.6576 6.85172 40.3738C8.45349 39.4098 8.84563 39.1713 8.91099 39.1227C9.0117 39.0482 9.13384 38.9165 9.21099 38.8C9.32991 38.6218 9.40063 38.4254 9.42741 38.2041C9.44348 38.0703 9.44455 10.1704 9.42741 10.07C9.3867 9.81205 9.22277 9.61884 8.97313 9.53464C8.87027 9.49902 8.73956 9.49146 8.63563 9.51413Z" fill="#02273A"/>
<path d="M26.103 17.9012C26.0312 17.9379 26.0033 18.0383 26.0451 18.1053C26.0558 18.1225 26.6183 18.74 27.2944 19.4761C27.9704 20.2123 28.5329 20.8286 28.5437 20.847C28.564 20.8783 28.564 21.0208 28.5608 26.9187L28.5587 32.9581L28.5308 33.0304C28.4526 33.2334 28.3808 33.3057 28.0862 33.4838C27.9629 33.5583 27.3683 33.9166 26.764 34.2804C26.1597 34.6442 25.4462 35.0738 25.1783 35.2357C24.9105 35.3976 24.4573 35.6707 24.1712 35.8423C23.8851 36.015 23.4062 36.3032 23.1051 36.4846C22.8051 36.6659 22.323 36.9563 22.0337 37.1301C21.7455 37.3039 21.2634 37.5942 20.9623 37.7756C19.4066 38.7125 18.8098 39.072 17.7373 39.7185C17.4373 39.8999 17.1213 40.0899 17.0355 40.1417C16.9498 40.1935 16.4709 40.4828 15.9695 40.7839C15.4691 41.0862 14.8156 41.4791 14.5177 41.6583C14.2199 41.8375 13.4966 42.2735 12.9106 42.6265C10.3167 44.1895 9.00526 44.9797 6.45529 46.5157C5.02494 47.3781 3.18853 48.4835 2.65175 48.8073C2.41068 48.9519 2.17711 49.0976 2.13533 49.13C1.87069 49.3308 1.68319 49.6503 1.63283 49.986C1.61033 50.1415 1.61033 59.3673 1.6339 59.4785C1.67355 59.6674 1.80962 59.8422 1.98319 59.9253C2.0989 59.9815 2.22533 60.0085 2.32925 59.9977C2.46747 59.9847 2.54247 59.9502 2.89711 59.7364C3.33532 59.4731 4.84602 58.5631 5.52851 58.1518C5.82636 57.9727 6.30315 57.6845 6.58921 57.5128C6.87528 57.3401 7.35528 57.0508 7.65528 56.8706C7.95634 56.6892 8.68169 56.2521 9.26776 55.8991C9.85383 55.5461 10.8138 54.9676 11.3999 54.6146C11.9859 54.2616 13.2181 53.519 14.1374 52.9652C15.0566 52.4115 16.0306 51.8243 16.3016 51.6613C16.5727 51.4983 17.028 51.223 17.3141 51.0514C17.6002 50.8787 18.0898 50.584 18.4016 50.3962C18.7145 50.2084 19.203 49.9126 19.4891 49.741C19.7752 49.5683 20.3516 49.2218 20.7694 48.9692C21.1884 48.7166 21.7037 48.4068 21.9159 48.2784C22.128 48.151 22.7473 47.7775 23.2926 47.4494C23.838 47.1212 24.5301 46.7046 24.8301 46.5232C25.4815 46.1303 26.3247 45.623 26.6515 45.4255C26.7812 45.3467 27.0758 45.1696 27.3051 45.0315C27.7894 44.7411 29.3922 43.775 30.1872 43.2957C31.2897 42.6319 31.7847 42.3329 32.8336 41.7014C33.4229 41.3463 34.1965 40.88 34.5532 40.6652C34.91 40.4504 35.6332 40.0143 36.1614 39.6959C36.6896 39.3774 37.1568 39.0914 37.1986 39.059C37.6518 38.7158 37.9411 38.1944 37.9914 37.6288C37.9968 37.5694 38 34.8342 38 31.285L37.9978 25.0459L37.9743 24.9261C37.9261 24.6876 37.8436 24.4846 37.7171 24.2904C37.6196 24.1425 37.4139 23.9363 37.2693 23.8402C37.2104 23.8014 34.7011 22.4467 31.6926 20.8308C27.6544 18.6612 26.2122 17.8905 26.1801 17.8872C26.1533 17.8851 26.1244 17.8905 26.103 17.9012Z" fill="#02273A"/>
<path d="M50.2955 42V18.7273H54.4091V27.4318H54.5795C54.7917 27.0076 55.0909 26.5568 55.4773 26.0795C55.8636 25.5947 56.3864 25.1818 57.0455 24.8409C57.7045 24.4924 58.5455 24.3182 59.5682 24.3182C60.9167 24.3182 62.1326 24.6629 63.2159 25.3523C64.3068 26.0341 65.1705 27.0455 65.8068 28.3864C66.4508 29.7197 66.7727 31.3561 66.7727 33.2955C66.7727 35.2121 66.4583 36.8409 65.8295 38.1818C65.2008 39.5227 64.3447 40.5455 63.2614 41.25C62.178 41.9545 60.9508 42.3068 59.5795 42.3068C58.5795 42.3068 57.75 42.1402 57.0909 41.8068C56.4318 41.4735 55.9015 41.072 55.5 40.6023C55.1061 40.125 54.7992 39.6742 54.5795 39.25H54.3409V42H50.2955ZM54.3295 33.2727C54.3295 34.4015 54.4886 35.3902 54.8068 36.2386C55.1326 37.0871 55.5985 37.75 56.2045 38.2273C56.8182 38.697 57.5606 38.9318 58.4318 38.9318C59.3409 38.9318 60.1023 38.6894 60.7159 38.2045C61.3295 37.7121 61.7917 37.0417 62.1023 36.1932C62.4205 35.3371 62.5795 34.3636 62.5795 33.2727C62.5795 32.1894 62.4242 31.2273 62.1136 30.3864C61.803 29.5455 61.3409 28.8864 60.7273 28.4091C60.1136 27.9318 59.3485 27.6932 58.4318 27.6932C57.553 27.6932 56.8068 27.9242 56.1932 28.3864C55.5795 28.8485 55.1136 29.4962 54.7955 30.3295C54.4848 31.1629 54.3295 32.1439 54.3295 33.2727ZM80.7549 34.6591V24.5455H84.8685V42H80.8799V38.8977H80.6981C80.3041 39.875 79.6564 40.6742 78.7549 41.2955C77.8609 41.9167 76.7587 42.2273 75.4481 42.2273C74.3041 42.2273 73.2928 41.9735 72.414 41.4659C71.5428 40.9508 70.8609 40.2045 70.3685 39.2273C69.8761 38.2424 69.6299 37.053 69.6299 35.6591V24.5455H73.7435V35.0227C73.7435 36.1288 74.0466 37.0076 74.6526 37.6591C75.2587 38.3106 76.0541 38.6364 77.039 38.6364C77.645 38.6364 78.2322 38.4886 78.8003 38.1932C79.3685 37.8977 79.8344 37.4583 80.1981 36.875C80.5693 36.2841 80.7549 35.5455 80.7549 34.6591ZM88.4586 42V24.5455H92.5723V42H88.4586ZM90.5268 22.0682C89.8753 22.0682 89.3147 21.8523 88.845 21.4205C88.3753 20.9811 88.1405 20.4545 88.1405 19.8409C88.1405 19.2197 88.3753 18.6932 88.845 18.2614C89.3147 17.822 89.8753 17.6023 90.5268 17.6023C91.1859 17.6023 91.7465 17.822 92.2086 18.2614C92.6783 18.6932 92.9132 19.2197 92.9132 19.8409C92.9132 20.4545 92.6783 20.9811 92.2086 21.4205C91.7465 21.8523 91.1859 22.0682 90.5268 22.0682ZM100.276 18.7273V42H96.1624V18.7273H100.276ZM110.343 42.3068C108.972 42.3068 107.745 41.9545 106.662 41.25C105.578 40.5455 104.722 39.5227 104.093 38.1818C103.465 36.8409 103.15 35.2121 103.15 33.2955C103.15 31.3561 103.468 29.7197 104.105 28.3864C104.749 27.0455 105.616 26.0341 106.707 25.3523C107.798 24.6629 109.014 24.3182 110.355 24.3182C111.377 24.3182 112.218 24.4924 112.877 24.8409C113.537 25.1818 114.059 25.5947 114.446 26.0795C114.832 26.5568 115.131 27.0076 115.343 27.4318H115.514V18.7273H119.639V42H115.593V39.25H115.343C115.131 39.6742 114.824 40.125 114.423 40.6023C114.021 41.072 113.491 41.4735 112.832 41.8068C112.173 42.1402 111.343 42.3068 110.343 42.3068ZM111.491 38.9318C112.362 38.9318 113.105 38.697 113.718 38.2273C114.332 37.75 114.798 37.0871 115.116 36.2386C115.434 35.3902 115.593 34.4015 115.593 33.2727C115.593 32.1439 115.434 31.1629 115.116 30.3295C114.806 29.4962 114.343 28.8485 113.73 28.3864C113.124 27.9242 112.377 27.6932 111.491 27.6932C110.574 27.6932 109.809 27.9318 109.196 28.4091C108.582 28.8864 108.12 29.5455 107.809 30.3864C107.499 31.2273 107.343 32.1894 107.343 33.2727C107.343 34.3636 107.499 35.3371 107.809 36.1932C108.127 37.0417 108.593 37.7121 109.207 38.2045C109.828 38.6894 110.59 38.9318 111.491 38.9318ZM123.382 42V24.5455H127.496V42H123.382ZM125.451 22.0682C124.799 22.0682 124.238 21.8523 123.769 21.4205C123.299 20.9811 123.064 20.4545 123.064 19.8409C123.064 19.2197 123.299 18.6932 123.769 18.2614C124.238 17.822 124.799 17.6023 125.451 17.6023C126.11 17.6023 126.67 17.822 127.132 18.2614C127.602 18.6932 127.837 19.2197 127.837 19.8409C127.837 20.4545 127.602 20.9811 127.132 21.4205C126.67 21.8523 126.11 22.0682 125.451 22.0682ZM139.802 24.5455V27.7273H129.768V24.5455H139.802ZM132.245 20.3636H136.359V36.75C136.359 37.303 136.442 37.7273 136.609 38.0227C136.783 38.3106 137.01 38.5076 137.291 38.6136C137.571 38.7197 137.882 38.7727 138.223 38.7727C138.48 38.7727 138.715 38.7538 138.927 38.7159C139.147 38.678 139.313 38.6439 139.427 38.6136L140.12 41.8295C139.901 41.9053 139.586 41.9886 139.177 42.0795C138.776 42.1705 138.283 42.2235 137.7 42.2386C136.669 42.2689 135.741 42.1136 134.916 41.7727C134.09 41.4242 133.435 40.8864 132.95 40.1591C132.473 39.4318 132.238 38.5227 132.245 37.4318V20.3636Z" fill="#02273A"/>
</svg>
