<svg width="143" height="60" viewBox="0 0 143 60" fill="none" xmlns="http://www.w3.org/2000/svg">
<path d="M14.8284 0.00873184C14.8016 0.0130501 14.7513 0.0270844 14.717 0.0400352C14.5177 0.110199 14.3463 0.302334 14.2981 0.507427C14.2841 0.566795 14.282 2.64792 14.282 17.6951V34.8147L14.3045 34.8957C14.3345 35.0058 14.3827 35.0921 14.4577 35.1731C14.6463 35.3771 14.9323 35.4451 15.183 35.3436C15.2163 35.3307 15.6288 35.0878 16.0991 34.8039C17.0141 34.2523 17.582 33.9102 18.3694 33.4363C18.6405 33.2722 19.0862 33.0045 19.3605 32.8394C19.6348 32.6742 20.0784 32.4065 20.3462 32.2457C20.6141 32.0838 21.2794 31.6833 21.8248 31.3552C23.1673 30.5478 23.1287 30.5704 23.2015 30.5132C23.2883 30.4431 23.4169 30.3071 23.4769 30.2218C23.5787 30.075 23.6623 29.871 23.6944 29.6885C23.7083 29.6022 23.7105 28.4127 23.7105 17.9649C23.7105 7.5172 23.7083 6.32767 23.6944 6.24132C23.6601 6.04486 23.5701 5.83438 23.4533 5.67678C23.3033 5.47601 23.554 5.6498 19.2416 2.75262C17.057 1.28677 15.2505 0.0756569 15.2259 0.0627022C15.1198 0.00873184 14.957 -0.0139351 14.8284 0.00873184Z" fill="#02273A"/>
<path d="M8.63563 9.51413C8.59706 9.52277 8.53706 9.54328 8.50171 9.55947C8.46635 9.57674 6.64922 10.7911 4.4646 12.2591C0.751064 14.7526 0.486424 14.9328 0.397496 15.0213C0.189641 15.2297 0.058928 15.4877 0.0160713 15.7791C0.00214284 15.8741 0 17.4749 0 29.6313C0 39.453 0.00321426 43.394 0.0117856 43.4404C0.0374996 43.5861 0.118927 43.7308 0.227141 43.8279C0.331068 43.9197 0.528209 43.9952 0.664279 43.9952C0.727493 43.9952 0.861421 43.965 0.925706 43.9369C0.955705 43.9229 1.27713 43.7329 1.63927 43.5149C2.00141 43.2968 2.5414 42.9708 2.83926 42.7917C3.61497 42.3243 4.39067 41.8569 5.02495 41.4748C5.32816 41.2923 5.67102 41.0851 5.78566 41.016C5.9003 40.9469 6.3803 40.6576 6.85172 40.3738C8.45349 39.4098 8.84563 39.1713 8.91099 39.1227C9.0117 39.0482 9.13384 38.9165 9.21099 38.8C9.32991 38.6218 9.40063 38.4254 9.42741 38.2041C9.44348 38.0703 9.44455 10.1704 9.42741 10.07C9.3867 9.81205 9.22277 9.61884 8.97313 9.53464C8.87027 9.49902 8.73956 9.49146 8.63563 9.51413Z" fill="#02273A"/>
<path d="M26.103 17.9012C26.0312 17.9379 26.0033 18.0383 26.0451 18.1053C26.0558 18.1225 26.6183 18.74 27.2944 19.4761C27.9704 20.2123 28.5329 20.8286 28.5437 20.847C28.564 20.8783 28.564 21.0208 28.5608 26.9187L28.5587 32.9581L28.5308 33.0304C28.4526 33.2334 28.3808 33.3057 28.0862 33.4838C27.9629 33.5583 27.3683 33.9166 26.764 34.2804C26.1597 34.6442 25.4462 35.0738 25.1783 35.2357C24.9105 35.3976 24.4573 35.6707 24.1712 35.8423C23.8851 36.015 23.4062 36.3032 23.1051 36.4846C22.8051 36.6659 22.323 36.9563 22.0337 37.1301C21.7455 37.3039 21.2634 37.5942 20.9623 37.7756C19.4066 38.7125 18.8098 39.072 17.7373 39.7185C17.4373 39.8999 17.1213 40.0899 17.0355 40.1417C16.9498 40.1935 16.4709 40.4828 15.9695 40.7839C15.4691 41.0862 14.8156 41.4791 14.5177 41.6583C14.2199 41.8375 13.4966 42.2735 12.9106 42.6265C10.3167 44.1895 9.00526 44.9797 6.45529 46.5157C5.02494 47.3781 3.18853 48.4835 2.65175 48.8073C2.41068 48.9519 2.17711 49.0976 2.13533 49.13C1.87069 49.3308 1.68319 49.6503 1.63283 49.986C1.61033 50.1415 1.61033 59.3673 1.6339 59.4785C1.67355 59.6674 1.80962 59.8422 1.98319 59.9253C2.0989 59.9815 2.22533 60.0085 2.32925 59.9977C2.46747 59.9847 2.54247 59.9502 2.89711 59.7364C3.33532 59.4731 4.84602 58.5631 5.52851 58.1518C5.82636 57.9727 6.30315 57.6845 6.58921 57.5128C6.87528 57.3401 7.35528 57.0508 7.65528 56.8706C7.95634 56.6892 8.68169 56.2521 9.26776 55.8991C9.85383 55.5461 10.8138 54.9676 11.3999 54.6146C11.9859 54.2616 13.2181 53.519 14.1374 52.9652C15.0566 52.4115 16.0306 51.8243 16.3016 51.6613C16.5727 51.4983 17.028 51.223 17.3141 51.0514C17.6002 50.8787 18.0898 50.584 18.4016 50.3962C18.7145 50.2084 19.203 49.9126 19.4891 49.741C19.7752 49.5683 20.3516 49.2218 20.7694 48.9692C21.1884 48.7166 21.7037 48.4068 21.9159 48.2784C22.128 48.151 22.7473 47.7775 23.2926 47.4494C23.838 47.1212 24.5301 46.7046 24.8301 46.5232C25.4815 46.1303 26.3247 45.623 26.6515 45.4255C26.7812 45.3467 27.0758 45.1696 27.3051 45.0315C27.7894 44.7411 29.3922 43.775 30.1872 43.2957C31.2897 42.6319 31.7847 42.3329 32.8336 41.7014C33.4229 41.3463 34.1965 40.88 34.5532 40.6652C34.91 40.4504 35.6332 40.0143 36.1614 39.6959C36.6896 39.3774 37.1568 39.0914 37.1986 39.059C37.6518 38.7158 37.9411 38.1944 37.9914 37.6288C37.9968 37.5694 38 34.8342 38 31.285L37.9978 25.0459L37.9743 24.9261C37.9261 24.6876 37.8436 24.4846 37.7171 24.2904C37.6196 24.1425 37.4139 23.9363 37.2693 23.8402C37.2104 23.8014 34.7011 22.4467 31.6926 20.8308C27.6544 18.6612 26.2122 17.8905 26.1801 17.8872C26.1533 17.8851 26.1244 17.8905 26.103 17.9012Z" fill="#02273A"/>
<path d="M50.2955 42V18.7273H59.2045C60.8864 18.7273 62.2841 18.9924 63.3977 19.5227C64.5189 20.0455 65.3561 20.7614 65.9091 21.6705C66.4697 22.5795 66.75 23.6098 66.75 24.7614C66.75 25.7083 66.5682 26.5189 66.2045 27.1932C65.8409 27.8598 65.3523 28.4015 64.7386 28.8182C64.125 29.2348 63.4394 29.5341 62.6818 29.7159V29.9432C63.5076 29.9886 64.2992 30.2424 65.0568 30.7045C65.822 31.1591 66.447 31.803 66.9318 32.6364C67.4167 33.4697 67.6591 34.4773 67.6591 35.6591C67.6591 36.8636 67.3674 37.947 66.7841 38.9091C66.2008 39.8636 65.322 40.6174 64.1477 41.1705C62.9735 41.7235 61.4962 42 59.7159 42H50.2955ZM54.5114 38.4773H59.0455C60.5758 38.4773 61.678 38.1856 62.3523 37.6023C63.0341 37.0114 63.375 36.2538 63.375 35.3295C63.375 34.6402 63.2045 34.0189 62.8636 33.4659C62.5227 32.9053 62.0379 32.4659 61.4091 32.1477C60.7803 31.822 60.0303 31.6591 59.1591 31.6591H54.5114V38.4773ZM54.5114 28.625H58.6818C59.4091 28.625 60.0644 28.4924 60.6477 28.2273C61.2311 27.9545 61.6894 27.572 62.0227 27.0795C62.3636 26.5795 62.5341 25.9886 62.5341 25.3068C62.5341 24.4053 62.2159 23.6629 61.5795 23.0795C60.9508 22.4962 60.0152 22.2045 58.7727 22.2045H54.5114V28.625ZM81.6299 34.6591V24.5455H85.7435V42H81.7549V38.8977H81.5731C81.1791 39.875 80.5314 40.6742 79.6299 41.2955C78.7359 41.9167 77.6337 42.2273 76.3231 42.2273C75.1791 42.2273 74.1678 41.9735 73.289 41.4659C72.4178 40.9508 71.7359 40.2045 71.2435 39.2273C70.7511 38.2424 70.5049 37.053 70.5049 35.6591V24.5455H74.6185V35.0227C74.6185 36.1288 74.9216 37.0076 75.5276 37.6591C76.1337 38.3106 76.9291 38.6364 77.914 38.6364C78.52 38.6364 79.1072 38.4886 79.6753 38.1932C80.2435 37.8977 80.7094 37.4583 81.0731 36.875C81.4443 36.2841 81.6299 35.5455 81.6299 34.6591ZM89.3336 42V24.5455H93.4473V42H89.3336ZM91.4018 22.0682C90.7503 22.0682 90.1897 21.8523 89.72 21.4205C89.2503 20.9811 89.0155 20.4545 89.0155 19.8409C89.0155 19.2197 89.2503 18.6932 89.72 18.2614C90.1897 17.822 90.7503 17.6023 91.4018 17.6023C92.0609 17.6023 92.6215 17.822 93.0836 18.2614C93.5533 18.6932 93.7882 19.2197 93.7882 19.8409C93.7882 20.4545 93.5533 20.9811 93.0836 21.4205C92.6215 21.8523 92.0609 22.0682 91.4018 22.0682ZM101.151 18.7273V42H97.0374V18.7273H101.151ZM111.218 42.3068C109.847 42.3068 108.62 41.9545 107.537 41.25C106.453 40.5455 105.597 39.5227 104.968 38.1818C104.34 36.8409 104.025 35.2121 104.025 33.2955C104.025 31.3561 104.343 29.7197 104.98 28.3864C105.624 27.0455 106.491 26.0341 107.582 25.3523C108.673 24.6629 109.889 24.3182 111.23 24.3182C112.252 24.3182 113.093 24.4924 113.752 24.8409C114.412 25.1818 114.934 25.5947 115.321 26.0795C115.707 26.5568 116.006 27.0076 116.218 27.4318H116.389V18.7273H120.514V42H116.468V39.25H116.218C116.006 39.6742 115.699 40.125 115.298 40.6023C114.896 41.072 114.366 41.4735 113.707 41.8068C113.048 42.1402 112.218 42.3068 111.218 42.3068ZM112.366 38.9318C113.237 38.9318 113.98 38.697 114.593 38.2273C115.207 37.75 115.673 37.0871 115.991 36.2386C116.309 35.3902 116.468 34.4015 116.468 33.2727C116.468 32.1439 116.309 31.1629 115.991 30.3295C115.681 29.4962 115.218 28.8485 114.605 28.3864C113.999 27.9242 113.252 27.6932 112.366 27.6932C111.449 27.6932 110.684 27.9318 110.071 28.4091C109.457 28.8864 108.995 29.5455 108.684 30.3864C108.374 31.2273 108.218 32.1894 108.218 33.2727C108.218 34.3636 108.374 35.3371 108.684 36.1932C109.002 37.0417 109.468 37.7121 110.082 38.2045C110.703 38.6894 111.465 38.9318 112.366 38.9318ZM128.655 18.7273V42H124.439V18.7273H128.655ZM141.115 24.5455V27.7273H131.08V24.5455H141.115ZM133.558 20.3636H137.671V36.75C137.671 37.303 137.755 37.7273 137.921 38.0227C138.096 38.3106 138.323 38.5076 138.603 38.6136C138.883 38.7197 139.194 38.7727 139.535 38.7727C139.793 38.7727 140.027 38.7538 140.24 38.7159C140.459 38.678 140.626 38.6439 140.74 38.6136L141.433 41.8295C141.213 41.9053 140.899 41.9886 140.49 42.0795C140.088 42.1705 139.596 42.2235 139.012 42.2386C137.982 42.2689 137.054 42.1136 136.228 41.7727C135.402 41.4242 134.747 40.8864 134.262 40.1591C133.785 39.4318 133.55 38.5227 133.558 37.4318V20.3636Z" fill="#02273A"/>
</svg>
