<svg width="99" height="156" viewBox="0 0 99 156" fill="none" xmlns="http://www.w3.org/2000/svg">
<path d="M38.632 0.522552C38.5622 0.533707 38.431 0.569954 38.3417 0.603416C37.8225 0.784676 37.3759 1.28103 37.2502 1.81084C37.214 1.96421 37.2084 7.34045 37.2084 46.2123V90.438L37.267 90.6472C37.3451 90.9316 37.4708 91.1547 37.6662 91.3638C38.1574 91.8908 38.9027 92.0665 39.5559 91.8044C39.6424 91.7709 40.7171 91.1435 41.9425 90.4101C44.3263 88.9852 45.8057 88.1013 47.8573 86.8771C48.5635 86.4532 49.7247 85.7617 50.4393 85.3351C51.1538 84.9084 52.3095 84.2169 53.0073 83.8014C53.7051 83.3831 55.4385 82.3486 56.8593 81.5009C60.3568 79.4151 60.2564 79.4736 60.4462 79.3258C60.6723 79.1446 61.0072 78.7932 61.1635 78.5729C61.4287 78.1937 61.6464 77.6667 61.7302 77.1954C61.7665 76.9723 61.7721 73.8994 61.7721 46.9094C61.7721 19.9194 61.7665 16.8465 61.7302 16.6234C61.6409 16.1159 61.4064 15.5721 61.1021 15.165C60.7113 14.6464 61.3645 15.0953 50.1294 7.61095C44.4379 3.82415 39.7317 0.695442 39.6675 0.66198C39.3912 0.522552 38.9669 0.463997 38.632 0.522552Z" fill="#02273A"/>
<path d="M22.4981 25.0782C22.3976 25.1005 22.2413 25.1535 22.1492 25.1953C22.0571 25.2399 17.323 28.377 11.6315 32.1694C1.95672 38.6108 1.26726 39.0765 1.03558 39.3052C0.494065 39.8433 0.153523 40.5098 0.0418699 41.2627C0.00558265 41.5081 0 45.6434 0 77.0476C0 102.42 0.00837398 112.601 0.0307046 112.721C0.0976965 113.097 0.309837 113.471 0.591761 113.722C0.86252 113.959 1.37612 114.154 1.73062 114.154C1.89531 114.154 2.24423 114.076 2.41171 114.004C2.48986 113.967 3.32726 113.477 4.27073 112.913C5.2142 112.35 6.62103 111.508 7.39702 111.045C9.41794 109.838 11.4389 108.63 13.0913 107.643C13.8813 107.172 14.7745 106.637 15.0732 106.458C15.3718 106.28 16.6224 105.532 17.8505 104.799C22.0236 102.309 23.0452 101.692 23.2155 101.567C23.4779 101.375 23.7961 101.034 23.997 100.733C24.3069 100.273 24.4911 99.7656 24.5609 99.194C24.6028 98.8482 24.6056 26.7736 24.5609 26.5143C24.4548 25.8478 24.0277 25.3487 23.3774 25.1312C23.1094 25.0391 22.7689 25.0196 22.4981 25.0782Z" fill="#02273A"/>
<path d="M68.0051 46.7449C67.818 46.8397 67.7455 47.099 67.8543 47.2719C67.8822 47.3165 69.3477 48.9116 71.109 50.8133C72.8703 52.7151 74.3358 54.3073 74.3637 54.3547C74.4167 54.4356 74.4167 54.8037 74.4084 70.0401L74.4028 85.6418L74.3302 85.8286C74.1264 86.3529 73.9394 86.5397 73.1718 86.9998C72.8508 87.1922 71.3016 88.118 69.7273 89.0577C68.153 89.9975 66.294 91.1073 65.5961 91.5256C64.8983 91.9438 63.7176 92.6493 62.9723 93.0927C62.227 93.5389 60.9793 94.2834 60.1949 94.7519C59.4134 95.2203 58.1573 95.9704 57.4036 96.4194C56.6527 96.8683 55.3966 97.6185 54.6123 98.0869C50.5593 100.507 49.0045 101.436 46.2104 103.106C45.4288 103.575 44.6054 104.065 44.3821 104.199C44.1588 104.333 42.911 105.081 41.6047 105.858C40.3011 106.639 38.5984 107.654 37.8224 108.117C37.0465 108.58 35.1623 109.707 33.6355 110.618C26.8777 114.656 23.4611 116.697 16.8177 120.665C13.0913 122.893 8.30695 125.749 6.9085 126.585C6.28045 126.959 5.67194 127.336 5.56308 127.419C4.87362 127.938 4.38514 128.763 4.25395 129.631C4.19533 130.032 4.19533 153.865 4.25674 154.153C4.36002 154.641 4.71452 155.092 5.16671 155.307C5.46817 155.452 5.79755 155.522 6.06831 155.494C6.42839 155.46 6.62378 155.371 7.54771 154.819C8.68937 154.139 12.6251 151.788 14.4032 150.726C15.1792 150.263 16.4213 149.518 17.1666 149.075C17.9119 148.629 19.1624 147.881 19.944 147.416C20.7284 146.947 22.6181 145.818 24.1449 144.906C25.6718 143.994 28.1728 142.5 29.6997 141.588C31.2265 140.676 34.4366 138.757 36.8315 137.327C39.2265 135.896 41.7638 134.379 42.47 133.958C43.1762 133.537 44.3625 132.826 45.1078 132.383C45.8531 131.937 47.1287 131.175 47.941 130.69C48.7561 130.205 50.0289 129.441 50.7742 128.998C51.5195 128.551 53.0212 127.656 54.1098 127.004C55.2012 126.351 56.5439 125.551 57.0966 125.219C57.6492 124.89 59.2626 123.925 60.6834 123.078C62.1042 122.23 63.9074 121.153 64.689 120.685C66.3861 119.67 68.5829 118.359 69.4342 117.849C69.772 117.646 70.5396 117.188 71.1369 116.831C72.3986 116.081 76.5744 113.585 78.6456 112.347C81.5179 110.632 82.8075 109.86 85.5402 108.229C87.0754 107.311 89.0907 106.107 90.0203 105.552C90.9498 104.997 92.8339 103.87 94.21 103.048C95.5862 102.225 96.8032 101.486 96.912 101.402C98.0928 100.516 98.8464 99.1689 98.9776 97.7077C98.9916 97.5543 99 90.4882 99 81.3196L98.9944 65.202L98.933 64.8925C98.8074 64.2762 98.5924 63.752 98.2631 63.2501C98.009 62.868 97.4731 62.3354 97.0963 62.0873C96.9428 61.9869 90.4055 58.4873 82.5674 54.3129C72.0469 48.708 68.2898 46.717 68.206 46.7086C68.1363 46.7031 68.0609 46.717 68.0051 46.7449Z" fill="#02273A"/>
</svg>
