<svg width="200" height="200" viewBox="0 0 200 200" fill="none" xmlns="http://www.w3.org/2000/svg">
<rect width="200" height="200" rx="100" fill="white"/>
<path d="M89.143 22.5226C89.0733 22.5337 88.9422 22.57 88.853 22.6034C88.3343 22.7847 87.8881 23.281 87.7627 23.8108C87.7264 23.9642 87.7208 29.3405 87.7208 68.2123V112.438L87.7794 112.647C87.8575 112.932 87.9829 113.155 88.1781 113.364C88.6689 113.891 89.4135 114.067 90.066 113.804C90.1524 113.771 91.226 113.144 92.4501 112.41C94.8315 110.985 96.3094 110.101 98.359 108.877C99.0645 108.453 100.224 107.762 100.938 107.335C101.652 106.908 102.807 106.217 103.504 105.801C104.201 105.383 105.933 104.349 107.352 103.501C110.846 101.415 110.746 101.474 110.935 101.326C111.161 101.145 111.496 100.793 111.652 100.573C111.917 100.194 112.134 99.6667 112.218 99.1954C112.254 98.9723 112.26 95.8994 112.26 68.9094C112.26 41.9194 112.254 38.8465 112.218 38.6234C112.129 38.1159 111.894 37.5721 111.59 37.165C111.2 36.6464 111.853 37.0953 100.629 29.6109C94.9431 25.8241 90.2416 22.6954 90.1775 22.662C89.9014 22.5226 89.4776 22.464 89.143 22.5226Z" fill="#02273A"/>
<path d="M73.0254 47.0782C72.925 47.1005 72.7688 47.1535 72.6768 47.1953C72.5848 47.2399 67.8555 50.377 62.1697 54.1694C52.5047 60.6108 51.816 61.0765 51.5845 61.3052C51.0436 61.8433 50.7034 62.5098 50.5918 63.2627C50.5556 63.5081 50.55 67.6434 50.55 99.0476C50.55 124.42 50.5584 134.601 50.5807 134.721C50.6476 135.097 50.8595 135.471 51.1412 135.722C51.4116 135.959 51.9247 136.154 52.2789 136.154C52.4434 136.154 52.7919 136.076 52.9593 136.004C53.0373 135.967 53.8739 135.477 54.8164 134.913C55.7589 134.35 57.1643 133.508 57.9395 133.045C59.9584 131.838 61.9773 130.63 63.6281 129.643C64.4172 129.172 65.3096 128.637 65.6079 128.458C65.9063 128.28 67.1556 127.532 68.3825 126.799C72.5513 124.309 73.5719 123.692 73.742 123.567C74.0041 123.375 74.322 123.034 74.5228 122.733C74.8323 122.273 75.0164 121.766 75.0861 121.194C75.1279 120.848 75.1307 48.7736 75.0861 48.5143C74.9801 47.8478 74.5535 47.3487 73.9038 47.1312C73.6361 47.0391 73.2959 47.0196 73.0254 47.0782Z" fill="#02273A"/>
<path d="M118.486 68.7449C118.3 68.8397 118.227 69.099 118.336 69.2719C118.364 69.3165 119.828 70.9116 121.587 72.8133C123.347 74.7151 124.811 76.3073 124.839 76.3547C124.892 76.4356 124.892 76.8037 124.883 92.0401L124.878 107.642L124.805 107.829C124.602 108.353 124.415 108.54 123.648 109C123.327 109.192 121.78 110.118 120.207 111.058C118.634 111.997 116.777 113.107 116.08 113.526C115.383 113.944 114.203 114.649 113.459 115.093C112.714 115.539 111.468 116.283 110.684 116.752C109.903 117.22 108.649 117.97 107.896 118.419C107.146 118.868 105.891 119.618 105.107 120.087C101.058 122.507 99.5051 123.436 96.7138 125.106C95.933 125.575 95.1104 126.065 94.8873 126.199C94.6642 126.333 93.4177 127.081 92.1127 127.858C90.8105 128.639 89.1095 129.654 88.3343 130.117C87.5591 130.58 85.6768 131.707 84.1515 132.618C77.4005 136.656 73.9874 138.697 67.3508 142.665C63.6281 144.893 58.8486 147.749 57.4516 148.585C56.8241 148.959 56.2162 149.336 56.1075 149.419C55.4187 149.938 54.9307 150.763 54.7997 151.631C54.7411 152.032 54.7411 175.865 54.8025 176.153C54.9056 176.641 55.2598 177.092 55.7115 177.307C56.0127 177.452 56.3417 177.522 56.6122 177.494C56.9719 177.46 57.1671 177.371 58.0901 176.819C59.2306 176.139 63.1624 173.788 64.9387 172.726C65.7139 172.263 66.9548 171.518 67.6993 171.075C68.4439 170.629 69.6931 169.881 70.4739 169.416C71.2575 168.947 73.1453 167.818 74.6706 166.906C76.1959 165.994 78.6944 164.5 80.2197 163.588C81.745 162.676 84.9518 160.757 87.3444 159.327C89.7369 157.896 92.2717 156.379 92.9772 155.958C93.6826 155.537 94.8678 154.826 95.6123 154.383C96.3568 153.937 97.6312 153.175 98.4426 152.69C99.2569 152.205 100.528 151.441 101.273 150.998C102.018 150.551 103.518 149.656 104.605 149.004C105.696 148.351 107.037 147.551 107.589 147.219C108.141 146.89 109.753 145.925 111.172 145.078C112.592 144.23 114.393 143.153 115.174 142.685C116.869 141.67 119.064 140.359 119.914 139.849C120.252 139.646 121.018 139.188 121.615 138.831C122.876 138.081 127.047 135.585 129.116 134.347C131.986 132.632 133.274 131.86 136.004 130.229C137.538 129.311 139.551 128.107 140.479 127.552C141.408 126.997 143.29 125.87 144.665 125.048C146.04 124.225 147.255 123.486 147.364 123.402C148.544 122.516 149.297 121.169 149.428 119.708C149.442 119.554 149.45 112.488 149.45 103.32L149.444 87.202L149.383 86.8925C149.258 86.2762 149.043 85.752 148.714 85.2501C148.46 84.868 147.925 84.3354 147.548 84.0873C147.395 83.9869 140.864 80.4873 133.034 76.3129C122.524 70.708 118.771 68.717 118.687 68.7086C118.617 68.7031 118.542 68.717 118.486 68.7449Z" fill="#02273A"/>
</svg>
